<svg width="125" height="48" viewBox="0 0 125 48" fill="none" xmlns="http://www.w3.org/2000/svg">
<path d="M48 48H0V0H48V48ZM1.59502 46.405H46.405V1.59502H1.59502V46.405Z" fill="white"/>
<path d="M14.3718 30.6043L14.2721 28.3281V25.8857H15.9004V33.1298H14.5047L10.8993 28.4943L10.9658 30.8702V33.1298H9.32092V25.8857H10.7166L14.3718 30.6043Z" fill="white"/>
<path d="M27.3646 31.9834C26.6169 32.7144 25.6533 33.0467 24.5733 33.0467C21.8153 33.0467 20.7021 31.269 20.7021 29.2918C20.6855 27.4143 21.9149 25.4538 24.5733 25.4538C25.5702 25.4538 26.484 25.8359 27.2317 26.567L26.2182 27.5639C25.7862 27.1319 25.1548 26.9657 24.5733 26.9657C22.9284 26.9657 22.2805 28.2451 22.2971 29.2918C22.3137 30.3551 22.8786 31.5514 24.5733 31.5514C25.1548 31.5514 25.9191 31.2856 26.3511 30.8536L27.3646 31.9834Z" fill="white"/>
<path d="M36.403 32H32.6812L32.1496 33.2461H30.405L33.6615 26.0021H35.4227L38.6792 33.2461H36.9346L36.403 32ZM34.5421 27.6303L33.296 30.5711H35.7882L34.5421 27.6303Z" fill="white"/>
<path d="M33.861 22.0145V14.7539H35.4726V21.9979H33.861V22.0145Z" fill="white"/>
<path d="M27.4974 22.0976H25.703L23.8422 19.7217H22.6791V22.0976H21.0675V14.8536C22.2472 14.8536 23.3437 14.8536 24.5068 14.8536C26.2513 14.8536 27.1817 16.0166 27.1817 17.2959C27.1651 18.243 26.8993 19.0737 25.5036 19.5722L27.4974 21.9813V22.0976ZM22.6791 16.2492V18.3593H24.5234C25.271 18.3593 25.5867 17.7944 25.5867 17.3458C25.5701 16.8473 25.2544 16.2492 24.5068 16.2492H22.6791V16.2492Z" fill="white"/>
<path d="M11.78 16.4818H9.57019V15.0363C11.6803 15.0363 13.458 15.0363 15.5847 15.0363V16.4818H13.375V22.297H11.7633V16.4818H11.78Z" fill="white"/>
<path d="M66.2098 21.4455H64V20C66.1101 20 67.8879 20 70.0145 20V21.4455H67.8048V27.2606H66.1931V21.4455H66.2098Z" fill="white"/>
<path d="M81.4444 27.244H79.65L77.7892 24.8681H76.6262V27.244H75.0145V20C76.1942 20 77.2907 20 78.4538 20C80.1983 20 81.1288 21.163 81.1288 22.4424C81.1121 23.3894 80.8463 24.2201 79.4507 24.7186L81.4444 27.1277V27.244ZM76.6262 21.3956V23.5057H78.4704C79.2181 23.5057 79.5337 22.9408 79.5337 22.4922C79.5171 21.9938 79.2014 21.3956 78.4538 21.3956H76.6262V21.3956Z" fill="white"/>
<path d="M86.4445 27.2606V20H88.0561V27.244H86.4445V27.2606Z" fill="white"/>
<path d="M98.1069 24.7186L98.0072 22.4424V20H99.6355V27.244H98.2398L94.6344 22.6085L94.7009 24.9844V27.244H93.056V20H94.4517L98.1069 24.7186Z" fill="white"/>
<path d="M111.298 26.5296C110.551 27.2606 109.587 27.5929 108.507 27.5929C105.749 27.5929 104.636 25.8152 104.636 23.838C104.619 21.9605 105.849 20 108.507 20C109.504 20 110.418 20.3821 111.165 21.1132L110.152 22.1101C109.72 21.6781 109.088 21.5119 108.507 21.5119C106.862 21.5119 106.214 22.7913 106.231 23.838C106.247 24.9014 106.812 26.0976 108.507 26.0976C109.088 26.0976 109.853 25.8318 110.285 25.3998L111.298 26.5296Z" fill="white"/>
<path d="M122.296 25.9979H118.574L118.043 27.244H116.298L119.555 20H121.316L124.572 27.244H122.828L122.296 25.9979ZM120.435 21.6282L119.189 24.5691H121.681L120.435 21.6282Z" fill="white"/>
</svg>
